<svg xmlns="http://www.w3.org/2000/svg" width="189.378" height="66.668" viewBox="0 0 189.378 66.668">
  <g id="Logo" transform="translate(-0.648 -6.248)">
    <rect id="Rectangle_241" data-name="Rectangle 241" width="66.668" height="66.668" rx="4" transform="translate(0.648 6.248)" fill="#ef0d33"/>
    <path id="Path_106" data-name="Path 106" d="M32.3,21.1H42.567V45.325A12.969,12.969,0,0,1,34.774,57.66a20.137,20.137,0,0,1-8.531,1.7,20.232,20.232,0,0,1-8.568-1.7A13.456,13.456,0,0,1,11.95,52.8a13.522,13.522,0,0,1-2.031-7.479V21.1H20.186V44.439a6.314,6.314,0,0,0,.776,3.139A5.6,5.6,0,0,0,23.1,49.72a6.314,6.314,0,0,0,3.139.776,6.249,6.249,0,0,0,3.139-.776,5.6,5.6,0,0,0,2.142-2.142,6.313,6.313,0,0,0,.776-3.139Zm25.414,0V58.916H47.446V21.1Z" fill="#fff"/>
    <path id="Path_107" data-name="Path 107" d="M66.435,62.082V19.962h18.2v6.292H75.743V36.862h7.748v6.5H75.743v18.72Zm22.293,0V19.962h9.308V55.79h9.672v6.292Zm21.027,0,7.956-42.12h10.608l7.852,42.12h-8.58l-1.4-8.892H120l-1.456,8.892Zm11.076-14.456H125.3l-2.236-16.432Zm19.186,14.456V19.962h11.6A25.842,25.842,0,0,1,159,20.9a8.781,8.781,0,0,1,4.836,3.38Q165.6,26.67,165.6,31.09a23.123,23.123,0,0,1-.416,4.628,8.622,8.622,0,0,1-1.56,3.536,8.321,8.321,0,0,1-3.172,2.444l5.772,20.384H156.6l-4.628-18.876h-2.652V62.082Zm9.308-24.232h2.6a5.834,5.834,0,0,0,3.068-.676,3.722,3.722,0,0,0,1.508-2.028,9.888,9.888,0,0,0,.468-3.224,7.644,7.644,0,0,0-.988-4.212q-.987-1.508-3.64-1.508h-3.016Zm21.669,24.232V19.962h18.928v6.344H180.3V36.758h7.332v6.448H180.3V55.79h9.724v6.292Z" fill="#fff"/>
  </g>
</svg>
